<svg width="1440" height="1024" viewBox="0 0 1440 1024" fill="none" xmlns="http://www.w3.org/2000/svg">
  <rect width="1440" height="1024" fill="#F6F7F9"/>
  <style>
    .title { font: 700 28px Inter, Arial, sans-serif; fill: #111827; }
    .subtitle { font: 400 13px Inter, Arial, sans-serif; fill: #6B7280; }
    .section { font: 700 15px Inter, Arial, sans-serif; fill: #111827; }
    .label { font: 700 11px Inter, Arial, sans-serif; fill: #6B7280; letter-spacing: .04em; }
    .body { font: 500 13px Inter, Arial, sans-serif; fill: #374151; }
    .body2 { font: 400 12px Inter, Arial, sans-serif; fill: #6B7280; }
    .body3 { font: 600 12px Inter, Arial, sans-serif; fill: #374151; }
    .chip { font: 700 11px Inter, Arial, sans-serif; }
    .mono { font: 600 12px "JetBrains Mono", Consolas, monospace; fill: #4B5563; }
    .small { font: 500 11px Inter, Arial, sans-serif; fill: #6B7280; }
  </style>

  <!-- Sidebar -->
  <rect x="0" y="0" width="244" height="1024" fill="#FFFFFF"/>
  <rect x="243" y="0" width="1" height="1024" fill="#E5E7EB"/>
  <circle cx="40" cy="34" r="16" fill="#111827"/>
  <text x="66" y="30" class="section">PMP Cockpit</text>
  <text x="66" y="48" class="body2">Delivery · Cliente · Finanzas</text>
  <text x="52" y="116" class="nav">Cockpit Ejecutivo</text>
  <text x="52" y="162" class="nav">Iniciativas</text>
  <text x="52" y="202" class="nav">Proyectos</text>
  <rect x="20" y="224" width="204" height="38" rx="7" fill="#111827"/>
  <text x="52" y="248" font-family="Inter, Arial, sans-serif" font-size="13" font-weight="700" fill="#FFFFFF">Entregables</text>
  <text x="52" y="296" class="nav">Riesgos</text>
  <text x="52" y="336" class="nav">Clientes</text>
  <text x="52" y="376" class="nav">Finanzas</text>
  <text x="52" y="416" class="nav">Reportes</text>

  <rect x="20" y="846" width="204" height="116" rx="8" fill="#F9FAFB" stroke="#E5E7EB"/>
  <text x="36" y="874" class="label">OBJETIVO DEL FLUJO</text>
  <text x="36" y="900" class="body">Separar recibido</text>
  <text x="36" y="922" class="body">de conforme.</text>
  <text x="36" y="944" class="body2">Auditable y facturable.</text>

  <!-- Header -->
  <rect x="244" y="0" width="1196" height="72" fill="#FFFFFF"/>
  <rect x="244" y="71" width="1196" height="1" fill="#E5E7EB"/>
  <text x="276" y="34" class="title">Detalle de Entregable</text>
  <text x="276" y="55" class="subtitle">Flujo PM / Cliente para entrega, revisión, ajustes, recibido y conformidad</text>
  <rect x="1070" y="20" width="130" height="32" rx="6" fill="#FFFFFF" stroke="#D1D5DB"/>
  <text x="1092" y="41" class="body">Exportar acta</text>
  <rect x="1214" y="20" width="154" height="32" rx="6" fill="#111827"/>
  <text x="1237" y="41" font-family="Inter, Arial, sans-serif" font-size="13" font-weight="700" fill="#FFFFFF">Enviar al cliente</text>

  <!-- Breadcrumb + hero -->
  <text x="276" y="104" class="body2">Entregables · Ministerio de Justicia · LUD Legajo Único Digital</text>
  <rect x="276" y="124" width="1120" height="126" rx="8" fill="#FFFFFF" stroke="#E5E7EB"/>
  <text x="300" y="158" class="label">ENTREGABLE</text>
  <text x="300" y="190" font-family="Inter, Arial, sans-serif" font-size="22" font-weight="700" fill="#111827">Prototipo dashboard comercial</text>
  <text x="300" y="216" class="body2">Versión 2 · Compromiso contractual · Responsable PM: Ana Pérez · Stakeholder cliente: Carlos Gómez</text>
  <rect x="936" y="150" width="116" height="28" rx="14" fill="#DBEAFE" stroke="#93C5FD"/>
  <text x="958" y="169" class="chip" fill="#1D4ED8">EN REVISIÓN</text>
  <rect x="1064" y="150" width="118" height="28" rx="14" fill="#FEF3C7" stroke="#FDE68A"/>
  <text x="1088" y="169" class="chip" fill="#92400E">CLIENTE</text>
  <rect x="1194" y="150" width="136" height="28" rx="14" fill="#F9FAFB" stroke="#E5E7EB"/>
  <text x="1215" y="169" class="chip" fill="#374151">VENCE 28 JUN</text>
  <text x="936" y="210" class="label">PRÓXIMA ACCIÓN</text>
  <text x="936" y="232" class="body">Cliente debe confirmar recibido o solicitar ajuste.</text>

  <!-- Stepper -->
  <rect x="276" y="274" width="1120" height="128" rx="8" fill="#FFFFFF" stroke="#E5E7EB"/>
  <text x="300" y="304" class="section">Flujo de entrega y conformidad</text>
  <text x="300" y="326" class="body2">El estado diferencia preparación, entrega, recepción, revisión, ajustes, conformidad y cierre.</text>
  <line x1="336" y1="364" x2="1328" y2="364" stroke="#D1D5DB" stroke-width="2"/>

  <g>
    <circle cx="336" cy="364" r="17" fill="#16A34A"/>
    <text x="331" y="369" font-family="Inter, Arial, sans-serif" font-size="13" font-weight="800" fill="#FFFFFF">1</text>
    <text x="294" y="393" class="small">Preparación PM</text>
  </g>
  <g>
    <circle cx="502" cy="364" r="17" fill="#16A34A"/>
    <text x="497" y="369" font-family="Inter, Arial, sans-serif" font-size="13" font-weight="800" fill="#FFFFFF">2</text>
    <text x="475" y="393" class="small">Entregado</text>
  </g>
  <g>
    <circle cx="668" cy="364" r="17" fill="#2563EB"/>
    <text x="663" y="369" font-family="Inter, Arial, sans-serif" font-size="13" font-weight="800" fill="#FFFFFF">3</text>
    <text x="629" y="393" class="small">Recibido cliente</text>
  </g>
  <g>
    <circle cx="834" cy="364" r="17" fill="#D97706"/>
    <text x="829" y="369" font-family="Inter, Arial, sans-serif" font-size="13" font-weight="800" fill="#FFFFFF">4</text>
    <text x="801" y="393" class="small">En revisión</text>
  </g>
  <g>
    <circle cx="1000" cy="364" r="17" fill="#F3F4F6" stroke="#D1D5DB"/>
    <text x="995" y="369" font-family="Inter, Arial, sans-serif" font-size="13" font-weight="800" fill="#6B7280">5</text>
    <text x="970" y="393" class="small">Ajustes</text>
  </g>
  <g>
    <circle cx="1166" cy="364" r="17" fill="#F3F4F6" stroke="#D1D5DB"/>
    <text x="1161" y="369" font-family="Inter, Arial, sans-serif" font-size="13" font-weight="800" fill="#6B7280">6</text>
    <text x="1134" y="393" class="small">Conforme</text>
  </g>
  <g>
    <circle cx="1328" cy="364" r="17" fill="#F3F4F6" stroke="#D1D5DB"/>
    <text x="1323" y="369" font-family="Inter, Arial, sans-serif" font-size="13" font-weight="800" fill="#6B7280">7</text>
    <text x="1305" y="393" class="small">Cierre</text>
  </g>

  <!-- Main columns -->
  <rect x="276" y="426" width="540" height="268" rx="8" fill="#FFFFFF" stroke="#E5E7EB"/>
  <text x="300" y="456" class="section">Acciones del PM</text>
  <text x="300" y="478" class="body2">El PM prepara, entrega, ajusta y documenta evidencia.</text>

  <rect x="300" y="504" width="492" height="44" rx="7" fill="#F9FAFB" stroke="#E5E7EB"/>
  <text x="320" y="531" class="body">Subir evidencia de entrega</text>
  <rect x="646" y="512" width="122" height="28" rx="6" fill="#111827"/>
  <text x="675" y="531" font-family="Inter, Arial, sans-serif" font-size="12" font-weight="700" fill="#FFFFFF">Adjuntar</text>

  <rect x="300" y="560" width="492" height="44" rx="7" fill="#F9FAFB" stroke="#E5E7EB"/>
  <text x="320" y="587" class="body">Registrar nueva versión / ajuste</text>
  <rect x="646" y="568" width="122" height="28" rx="6" fill="#FFFFFF" stroke="#D1D5DB"/>
  <text x="681" y="587" class="body3">Crear V3</text>

  <rect x="300" y="616" width="492" height="54" rx="7" fill="#ECFDF5" stroke="#A7F3D0"/>
  <text x="320" y="640" class="body">Listo para facturación cuando exista conforme</text>
  <text x="320" y="660" class="body2">Recibido no equivale a conforme.</text>

  <rect x="840" y="426" width="556" height="268" rx="8" fill="#FFFFFF" stroke="#E5E7EB"/>
  <text x="864" y="456" class="section">Acciones del cliente stakeholder</text>
  <text x="864" y="478" class="body2">El cliente confirma recepción, aprueba o solicita ajustes con comentario obligatorio.</text>

  <rect x="864" y="504" width="508" height="44" rx="7" fill="#DBEAFE" stroke="#93C5FD"/>
  <text x="884" y="531" class="body">Confirmar recibido</text>
  <rect x="1230" y="512" width="116" height="28" rx="6" fill="#2563EB"/>
  <text x="1254" y="531" font-family="Inter, Arial, sans-serif" font-size="12" font-weight="700" fill="#FFFFFF">Recibido</text>

  <rect x="864" y="560" width="242" height="78" rx="7" fill="#ECFDF5" stroke="#A7F3D0"/>
  <text x="884" y="586" class="body">Aprobar conforme</text>
  <text x="884" y="607" class="body2">Habilita cierre financiero</text>
  <rect x="884" y="618" width="102" height="20" rx="10" fill="#D1FAE5"/>
  <text x="902" y="632" class="chip" fill="#166534">CONFORME</text>

  <rect x="1128" y="560" width="244" height="78" rx="7" fill="#FFFBEB" stroke="#FDE68A"/>
  <text x="1148" y="586" class="body">Solicitar ajuste</text>
  <text x="1148" y="607" class="body2">Comentario obligatorio</text>
  <rect x="1148" y="618" width="88" height="20" rx="10" fill="#FEF3C7"/>
  <text x="1162" y="632" class="chip" fill="#92400E">AJUSTE</text>

  <!-- Evidence grouped -->
  <rect x="276" y="718" width="680" height="246" rx="8" fill="#FFFFFF" stroke="#E5E7EB"/>
  <text x="300" y="748" class="section">Evidencias y archivos adjuntos por etapa</text>
  <text x="300" y="770" class="body2">No lista única: cada archivo queda asociado a un momento del flujo.</text>

  <rect x="300" y="794" width="304" height="146" rx="7" fill="#F9FAFB" stroke="#E5E7EB"/>
  <text x="320" y="822" class="label">ENTREGA PM</text>
  <text x="320" y="850" class="body">alcance-dashboard-v2.pdf</text>
  <text x="320" y="872" class="body2">Subido por PM · 24 JUN · 1.8 MB</text>
  <text x="320" y="902" class="body">evidencia-demo.mp4</text>
  <text x="320" y="924" class="body2">Subido por PM · 24 JUN · 12 MB</text>

  <rect x="628" y="794" width="304" height="146" rx="7" fill="#F9FAFB" stroke="#E5E7EB"/>
  <text x="648" y="822" class="label">REVISIÓN CLIENTE</text>
  <text x="648" y="850" class="body">comentarios-cliente.docx</text>
  <text x="648" y="872" class="body2">Subido por stakeholder · 25 JUN</text>
  <rect x="648" y="896" width="158" height="28" rx="6" fill="#FFFFFF" stroke="#D1D5DB"/>
  <text x="670" y="915" class="body3">Agregar archivo</text>

  <!-- Timeline -->
  <rect x="980" y="718" width="416" height="246" rx="8" fill="#FFFFFF" stroke="#E5E7EB"/>
  <text x="1004" y="748" class="section">Timeline auditable</text>
  <text x="1004" y="770" class="body2">Historial de eventos, actor, fecha y evidencia asociada.</text>
  <line x1="1022" y1="804" x2="1022" y2="930" stroke="#D1D5DB" stroke-width="2"/>
  <circle cx="1022" cy="810" r="6" fill="#16A34A"/>
  <text x="1044" y="815" class="body">PM entregó versión 2</text>
  <text x="1044" y="835" class="body2">24 JUN · 2 archivos adjuntos</text>
  <circle cx="1022" cy="862" r="6" fill="#2563EB"/>
  <text x="1044" y="867" class="body">Cliente confirmó recibido</text>
  <text x="1044" y="887" class="body2">25 JUN · Carlos Gómez</text>
  <circle cx="1022" cy="914" r="6" fill="#D97706"/>
  <text x="1044" y="919" class="body">Revisión en curso</text>
  <text x="1044" y="939" class="body2">Próxima acción: aprobar o pedir ajuste</text>
</svg>
